<svg width="20" height="39" viewBox="0 0 20 39" fill="none" xmlns="http://www.w3.org/2000/svg">
<path d="M19.9486 29.3147C19.6029 33.2421 18.0456 36.7738 14.9781 39C11.8815 37.3174 8.46105 37.2027 5.3026 38.8447C2.01316 36.2375 0.310221 32.1733 0.0373142 27.7911C-0.290174 22.5916 1.57287 17.7323 4.25464 13.3871L7.7151 7.78817C7.56227 8.3022 7.2639 9.48189 7.55864 10.5063C7.59866 10.6468 7.64233 10.7614 7.68963 10.8576C7.91887 11.3272 8.60296 11.3605 8.7194 11.3494C9.207 11.3013 9.70914 9.10468 9.81467 0C12.7875 3.61673 13.1041 8.33179 12.1035 12.7214C11.6304 14.7886 10.0621 22.917 12.8458 23.4126C13.9156 23.6049 14.163 21.8372 13.9811 21.0014C13.3661 18.1798 13.0459 15.5578 13.3989 12.6068L17.0813 19.0969C18.8788 22.2625 20.2907 25.4206 19.9486 29.311V29.3147Z" fill="#FCFBF7"/>
</svg>
