<svg width="82" height="27" viewBox="0 0 82 27" fill="none" xmlns="http://www.w3.org/2000/svg">
<path d="M0 17.558V17.508C0 12.3762 3.9065 8.03297 9.41552 8.03297C12.1534 8.03297 13.973 8.6865 15.6421 9.89435C15.8446 10.0463 16.0089 10.2437 16.1219 10.4708C16.2349 10.6979 16.2935 10.9483 16.2931 11.2022C16.2932 11.4114 16.2522 11.6186 16.1726 11.8119C16.093 12.0053 15.9762 12.1809 15.8289 12.3289C15.6817 12.4769 15.5068 12.5942 15.3144 12.6743C15.122 12.7543 14.9157 12.7955 14.7074 12.7955C14.2901 12.7955 13.973 12.6108 13.7226 12.4266C12.5539 11.5711 11.2685 10.9845 9.29873 10.9845C5.92638 10.9845 3.37233 13.9529 3.37233 17.4576V17.508C3.37233 21.2812 5.84292 24.065 9.58248 24.065C11.3018 24.065 12.871 23.5115 13.9895 22.6729V19.2352H10.3839C9.59893 19.2352 8.94799 18.6316 8.94799 17.843C8.94799 17.0549 9.59894 16.4344 10.3835 16.4344H15.4752C16.3934 16.4344 17.0945 17.1391 17.0945 18.0611V22.9579C17.0945 23.8803 16.7273 24.5343 15.976 25.004C14.4068 26.0607 12.22 27 9.48215 27C3.75641 26.9827 0 22.8909 0 17.558ZM19.9492 8.98888C19.9476 8.78142 19.987 8.5757 20.0653 8.38371C20.1436 8.19173 20.2591 8.01733 20.4052 7.87063C20.5512 7.72393 20.7248 7.60784 20.916 7.5292C21.1071 7.45055 21.3118 7.41092 21.5184 7.41254C22.4033 7.41254 23.1044 8.11686 23.1044 8.98888V25.2221C23.1044 26.1106 22.4029 26.7984 21.5184 26.7984C21.3118 26.8001 21.1071 26.7604 20.916 26.6817C20.7248 26.6031 20.5512 26.487 20.4052 26.3403C20.2591 26.1936 20.1436 26.0192 20.0653 25.8273C19.987 25.6353 19.9476 25.4295 19.9492 25.2221V8.98888ZM25.5581 19.8387V19.7887C25.5581 15.8309 28.6801 12.5605 32.9036 12.5605C37.1272 12.5605 40.2323 15.7809 40.2323 19.7383V19.7888C40.2323 23.7127 37.1103 26.9996 32.8535 26.9996C28.6632 26.9831 25.5581 23.763 25.5581 19.8387ZM37.077 19.8387V19.7888C37.077 17.3569 35.324 15.3278 32.8535 15.3278C30.3159 15.3278 28.7134 17.3235 28.7134 19.7215V19.7719C28.7134 22.1868 30.4664 24.1994 32.9036 24.1994C35.4577 24.2159 37.077 22.2202 37.077 19.8387ZM48.1115 26.9327H47.9614C47.0934 26.9327 46.5255 26.3792 46.1586 25.5407L41.5675 14.9924C41.484 14.7578 41.3841 14.4893 41.3841 14.2043C41.3841 13.4161 42.0852 12.6783 42.9533 12.6783C43.8214 12.6783 44.2552 13.1814 44.5224 13.8353L48.0614 23.0084L51.6673 13.785C51.9008 13.2318 52.3183 12.6783 53.153 12.6783C54.0211 12.6783 54.6889 13.3322 54.6889 14.2043C54.6889 14.4893 54.5886 14.8082 54.5051 14.959L49.9143 25.5407C49.5471 26.3623 48.9796 26.9327 48.1115 26.9327ZM55.8407 19.8388V19.7888C55.8407 15.831 58.9626 12.5606 63.1862 12.5606C67.4094 12.5606 70.5148 15.781 70.5148 19.7384V19.7888C70.5148 23.7128 67.3929 26.9998 63.136 26.9998C58.9289 26.9833 55.8407 23.7631 55.8407 19.8388ZM67.3596 19.8388V19.7888C67.3596 17.357 65.6066 15.3279 63.136 15.3279C60.5984 15.3279 58.9959 17.3236 58.9959 19.7215V19.772C58.9959 22.1869 60.7485 24.1995 63.2026 24.1995C65.7402 24.216 67.3596 22.2203 67.3596 19.8388Z" fill="#FCFBF7"/>
<path d="M75.7895 0C72.3677 0 69.5966 2.7838 69.5966 6.22155C69.5966 7.52979 69.9971 8.78724 70.7649 9.84391L70.9318 10.0785L74.1537 14.6572C74.1537 14.6572 74.5546 15.3108 75.4058 15.3108H76.1904C77.042 15.3108 77.4425 14.6572 77.4425 14.6572L80.664 10.0785L80.8314 9.84391C81.5995 8.77069 82 7.52977 82 6.22191C81.9831 2.78339 79.212 0 75.7895 0ZM78.3435 8.06599L78.1766 8.30062L75.8059 11.6714L73.4192 8.30062L73.2519 8.04905C72.8678 7.49591 72.6511 6.87506 72.6511 6.20461C72.6506 5.79046 72.7315 5.3803 72.889 4.99758C73.0466 4.61487 73.2777 4.26713 73.5693 3.97428C73.8608 3.68143 74.2069 3.44923 74.5879 3.29096C74.9689 3.13269 75.3772 3.05146 75.7895 3.05192C76.2017 3.05146 76.6101 3.13269 76.991 3.29096C77.372 3.44923 77.7182 3.68143 78.0097 3.97428C78.3012 4.26713 78.5323 4.61487 78.6899 4.99758C78.8475 5.3803 78.9283 5.79046 78.9279 6.20461C78.9291 6.8708 78.725 7.52104 78.3435 8.06599ZM74.0533 18.1115C74.0533 17.1725 74.7881 16.4009 75.773 16.4009C76.7747 16.4009 77.4927 17.1556 77.4927 18.0945V18.1115C77.4927 19.0339 76.7579 19.8052 75.7566 19.8052C74.7713 19.7887 74.0533 19.0335 74.0533 18.1115Z" fill="#FCFBF7"/>
</svg>
