<svg width="95" height="43" viewBox="0 0 95 43" fill="none" xmlns="http://www.w3.org/2000/svg">
<path d="M52.4174 16.4059C52.2208 18.6039 51.335 20.5804 49.5903 21.8263C47.8291 20.8846 45.8836 20.8204 44.0872 21.7394C42.2162 20.2803 41.2477 18.0058 41.0924 15.5532C40.9062 12.6434 41.9658 9.92386 43.4911 7.49205L45.4594 4.35864C45.3724 4.64631 45.2027 5.30653 45.3704 5.87981C45.3931 5.95846 45.418 6.02262 45.4449 6.07643C45.5753 6.33927 45.9643 6.3579 46.0306 6.35169C46.3079 6.32478 46.5935 5.09542 46.6535 2.86102e-06C48.3444 2.0241 48.5245 4.66287 47.9553 7.11952C47.6863 8.27644 46.7943 12.8255 48.3775 13.1028C48.986 13.2104 49.1267 12.2211 49.0232 11.7534C48.6735 10.1743 48.4914 8.70692 48.6921 7.05536L50.7866 10.6876C51.809 12.4592 52.612 14.2266 52.4174 16.4039V16.4059Z" fill="#B93622"/>
<path d="M0 42.5847V22.9004H8.67794L8.68001 25.9076H3.23069L3.24724 31.2307H7.17953L7.19609 34.2482H3.24724L3.21827 42.6364L0 42.5847Z" fill="#B93622"/>
<path d="M84.4139 42.6861H81.2142L79.4136 35.2623H77.491L77.4765 42.6861H74.5231V22.9253H79.9207C82.1249 22.9232 83.7454 24.6803 83.7868 26.8369V30.2228C83.8137 31.6943 83.379 33.0023 82.2677 34.0143L84.4159 42.6881L84.4139 42.6861ZM80.9307 30.3801V27.288C80.9162 25.6882 78.4595 25.9262 77.4785 25.9842L77.491 32.2489H79.5006C80.3388 32.2489 80.9369 31.1851 80.9307 30.3801Z" fill="#B93622"/>
<path d="M94.9959 37.5451C94.9959 38.106 94.8013 38.6875 94.6958 39.1222C94.1121 41.4815 92.1129 43.04 89.7018 42.8765C87.5224 42.7275 85.4073 40.9041 85.3969 38.4702L85.3514 27.5302C85.341 25.0487 86.9864 22.9915 89.441 22.6541C91.8956 22.3168 94.0397 23.8587 94.6833 26.2822C94.7972 26.7065 95 27.2777 95 27.7185L94.9959 37.5451ZM91.6741 37.957L91.6617 27.3356C91.6617 26.3195 90.7842 25.6199 89.9522 25.6448C89.1202 25.6696 88.2944 26.336 88.2944 27.3398L88.2903 38.0418C88.2903 39.0373 89.0643 39.7824 89.9398 39.7803C90.8152 39.7782 91.6741 39.0746 91.6741 37.957Z" fill="#B93622"/>
<path d="M51.4695 38.1722C51.4758 40.9145 49.2199 42.8744 46.7715 42.8868C44.3231 42.8992 42.0672 40.9269 42.0693 38.2591V27.1183C42.0714 24.521 44.3397 22.6107 46.7715 22.6107C49.2033 22.6107 51.4633 24.5313 51.4695 27.1245V38.1722ZM48.3258 37.957L48.3196 27.3191C48.3196 26.3174 47.5145 25.6013 46.5521 25.6344C45.9374 25.6551 44.9626 26.307 44.9626 27.2011V38.1329C44.9626 39.116 45.9768 39.8424 46.7446 39.7803C47.6407 39.7079 48.3279 39.0249 48.3258 37.9549V37.957Z" fill="#B93622"/>
<path d="M29.8999 38.3274C29.8999 40.9807 27.6357 42.8475 25.2846 42.8889C22.9335 42.9303 20.541 41.0552 20.539 38.4702V27.1101C20.5369 24.523 22.8301 22.5776 25.2639 22.6107C27.6875 22.6438 29.8999 24.5768 29.8999 27.1763V38.3274ZM26.7934 37.9611L26.7872 27.3232C26.7872 26.336 25.9697 25.6179 25.0963 25.6344C24.2229 25.651 23.4427 26.3774 23.4427 27.3625V38.0439C23.4427 39.0373 24.2291 39.772 25.1087 39.7803C26.0235 39.7886 26.7934 39.0642 26.7934 37.9611Z" fill="#B93622"/>
<path d="M72.9316 22.8901L72.8985 38.671C72.8943 41.0883 70.6095 42.7813 68.455 42.8723C66.255 42.9655 63.6783 41.3325 63.6659 38.8697L63.5831 22.8901H66.5033L66.5095 38.0584C66.5095 39.0208 67.1842 39.7286 68.07 39.7907C68.8337 39.8465 69.8044 39.2298 69.8044 38.2798L69.8106 22.8901H72.9316Z" fill="#B93622"/>
<path d="M15.9051 22.9004H18.9764V38.6834C18.9702 41.0718 16.6543 42.7751 14.5433 42.8682C12.3039 42.9675 9.73966 41.3284 9.72518 38.8407V22.9004H12.5606V38.0604C12.5606 39.0456 13.2932 39.741 14.1666 39.7927C15.0917 39.8465 15.9072 39.087 15.9072 38.0625V22.9004H15.9051Z" fill="#B93622"/>
<path d="M34.2896 37.9632C34.2896 39.0332 34.9974 39.7037 35.8646 39.8072C36.5537 39.89 37.5927 39.2857 37.6237 38.3916L37.7314 35.3927H40.7447L40.7385 38.4785C40.7323 41.1235 38.3088 43.0296 35.8521 42.9013C33.1409 42.7585 31.3341 40.5792 31.3424 37.8452V27.3212C31.3507 24.7362 33.4369 22.768 35.8418 22.6604C38.3833 22.5465 40.7261 24.4402 40.7406 27.1142L40.753 29.6578H37.721L37.6403 27.1535C37.6134 26.2843 36.7359 25.6675 36.0384 25.6592C35.1733 25.6468 34.3061 26.3443 34.3041 27.3336L34.2896 37.9673V37.9632Z" fill="#B93622"/>
<path d="M57.5812 35.2375L56.031 35.2582L56.0124 42.653L52.968 42.6364V22.9087L58.051 22.9025C60.2799 22.9004 62.1364 24.6638 62.2337 26.9134C62.2937 28.3001 62.304 29.6619 62.2337 31.0465C62.1054 33.4597 59.9695 35.2085 57.5853 35.2395L57.5812 35.2375ZM59.4004 30.3759L59.3859 27.5012C59.3838 26.9921 58.8995 26.1539 58.3552 26.0628C57.517 25.9262 56.7637 25.9283 56.0186 25.9862L56.0289 32.2427C56.716 32.2344 57.3349 32.2282 57.9971 32.1848C58.8685 32.1289 59.4045 31.2017 59.3983 30.3739L59.4004 30.3759Z" fill="#B93622"/>
</svg>
